<svg width="32" height="32" viewBox="0 0 32 32" fill="none" xmlns="http://www.w3.org/2000/svg">
<circle cx="16" cy="16" r="16" fill="#26A17B"/>
<path d="M17.92 17.72V17.73C17.7517 17.7433 17.5833 17.755 17.415 17.765C17.2467 17.775 17.0783 17.7817 16.91 17.785C16.7417 17.7883 16.5733 17.79 16.405 17.79C16.2367 17.79 16.0683 17.7883 15.9 17.785C15.7317 17.7817 15.5633 17.775 15.395 17.765C15.2267 17.755 15.0583 17.7433 14.89 17.73V17.72C12.65 17.6067 10.91 17.2233 10.91 16.755C10.91 16.2867 12.65 15.9033 14.89 15.79V17.72C15.0583 17.7333 15.2267 17.745 15.395 17.755C15.5633 17.765 15.7317 17.7717 15.9 17.775C16.0683 17.7783 16.2367 17.78 16.405 17.78C16.5733 17.78 16.7417 17.7783 16.91 17.775C17.0783 17.7717 17.2467 17.765 17.415 17.755C17.5833 17.745 17.7517 17.7333 17.92 17.72V15.79C20.16 15.9033 21.9 16.2867 21.9 16.755C21.9 17.2233 20.16 17.6067 17.92 17.72ZM17.92 15.68V13.91H21.56V11.34H10.25V13.91H13.89V15.68C11.3817 15.8133 9.5 16.2617 9.5 16.795C9.5 17.3283 11.3817 17.7767 13.89 17.91V24.66H17.92V17.91C20.4283 17.7767 22.31 17.3283 22.31 16.795C22.31 16.2617 20.4283 15.8133 17.92 15.68Z" fill="white"/>
</svg>
